<svg width="541" height="371" viewBox="0 0 541 371" fill="none" xmlns="http://www.w3.org/2000/svg">
<g opacity="0.4">
<path opacity="0.2" fill-rule="evenodd" clip-rule="evenodd" d="M82.0035 275.026L0.00354385 275.026L0.00355102 193.026L8.78927 193.026C49.2244 193.026 82.0035 225.805 82.0035 266.24L82.0035 275.026Z" fill="white"/>
<path opacity="0.2" fill-rule="evenodd" clip-rule="evenodd" d="M90.0035 275.026L172.004 275.026L172.004 193.026L163.218 193.026C122.783 193.026 90.0035 225.805 90.0035 266.24L90.0035 275.026Z" fill="white"/>
<path opacity="0.2" fill-rule="evenodd" clip-rule="evenodd" d="M184.004 193.026L265.004 193.026L265.004 275.026L256.325 275.026C216.383 275.026 184.004 242.246 184.004 201.811L184.004 193.026Z" fill="white"/>
<path opacity="0.2" fill-rule="evenodd" clip-rule="evenodd" d="M357.004 193.026L275.004 193.026L275.004 275.026L283.789 275.026C324.224 275.026 357.004 242.246 357.004 201.811L357.004 193.026Z" fill="white"/>
<path opacity="0.2" fill-rule="evenodd" clip-rule="evenodd" d="M357.004 370.026L275.004 370.026L275.004 288.026L283.789 288.026C324.224 288.026 357.004 320.805 357.004 361.24L357.004 370.026Z" fill="white"/>
<path opacity="0.2" fill-rule="evenodd" clip-rule="evenodd" d="M185.004 288.026L267.004 288.026L267.004 370.026L258.218 370.026C217.783 370.026 185.004 337.246 185.004 296.811L185.004 288.026Z" fill="white"/>
<path opacity="0.2" fill-rule="evenodd" clip-rule="evenodd" d="M92.0035 288.026L173.004 288.026L173.004 370.026L164.325 370.026C124.383 370.026 92.0035 337.246 92.0035 296.811L92.0035 288.026Z" fill="white"/>
<path opacity="0.3" fill-rule="evenodd" clip-rule="evenodd" d="M82.0035 290.222L82.0035 288.026L79.9535 288.026L79.9535 290.026L80.0035 290.026L80.0035 290.222L82.0035 290.222ZM71.7535 288.026L75.8535 288.026L75.8535 290.026L71.7535 290.026L71.7535 288.026ZM82.0035 294.615L80.0035 294.615L80.0035 296.811C80.0035 297.482 79.9943 298.149 79.9759 298.815L81.9751 298.87C81.994 298.186 82.0035 297.5 82.0035 296.811L82.0035 294.615ZM81.7481 302.97L79.755 302.804C79.6439 304.139 79.496 305.462 79.3124 306.774L81.2931 307.051C81.4819 305.702 81.6339 304.342 81.7481 302.97ZM80.61 311.1L78.648 310.712C78.3886 312.023 78.0932 313.321 77.7629 314.605L79.6999 315.104C80.0395 313.783 80.3433 312.448 80.61 311.1ZM78.5644 319.052L76.6587 318.445C76.2533 319.718 75.8132 320.975 75.3393 322.216L77.2076 322.929C77.6949 321.654 78.1475 320.361 78.5644 319.052ZM75.6343 326.723L73.8092 325.905C73.2635 327.123 72.6845 328.323 72.0735 329.503L73.8497 330.422C74.4779 329.209 75.0731 327.975 75.6343 326.723ZM71.8599 334.015L70.1382 332.997C69.4597 334.145 68.7498 335.272 68.0098 336.378L69.6717 337.49C70.4325 336.354 71.1623 335.195 71.8599 334.015ZM67.2922 340.838L65.6951 339.634C64.8928 340.699 64.0613 341.74 63.2018 342.757L64.7293 344.048C65.6128 343.003 66.4675 341.932 67.2922 340.838ZM61.9914 347.109L60.5383 345.735C59.623 346.703 58.6808 347.645 57.713 348.56L59.0872 350.014C60.0821 349.073 61.0505 348.104 61.9914 347.109ZM56.0256 352.751L54.7345 351.224C53.7177 352.083 52.6765 352.915 51.6121 353.717L52.8159 355.314C53.9101 354.49 54.9804 353.635 56.0256 352.751ZM49.4682 357.694L48.3556 356.032C47.2502 356.772 46.1231 357.482 44.9752 358.16L45.993 359.882C47.1731 359.184 48.3319 358.455 49.4682 357.694ZM42.4004 361.872L41.4809 360.096C40.3006 360.707 39.101 361.286 37.8834 361.831L38.7013 363.656C39.9534 363.095 41.1868 362.5 42.4004 361.872ZM34.9073 365.23L34.1936 363.361C32.953 363.835 31.6958 364.275 30.423 364.681L31.0299 366.586C32.3387 366.17 33.6316 365.717 34.9073 365.23ZM27.0815 367.722L26.5833 365.785C25.2992 366.115 24.001 366.411 22.6898 366.67L23.0779 368.632C24.4261 368.365 25.761 368.062 27.0815 367.722ZM19.0292 369.315L18.752 367.335C17.44 367.518 16.1165 367.666 14.7823 367.777L14.9483 369.77C16.3197 369.656 17.6804 369.504 19.0292 369.315ZM67.6535 288.026L67.6535 290.026L63.5535 290.026L63.5535 288.026L67.6535 288.026ZM59.4535 288.026L59.4535 290.026L55.3535 290.026L55.3535 288.026L59.4535 288.026ZM51.2535 288.026L51.2535 290.026L47.1535 290.026L47.1535 288.026L51.2535 288.026ZM43.0535 288.026L43.0535 290.026L38.9535 290.026L38.9535 288.026L43.0535 288.026ZM34.8535 288.026L34.8535 290.026L30.7535 290.026L30.7535 288.026L34.8535 288.026ZM26.6535 288.026L26.6535 290.026L22.5535 290.026L22.5535 288.026L26.6535 288.026ZM18.4535 288.026L18.4535 290.026L14.3535 290.026L14.3535 288.026L18.4535 288.026ZM10.2535 288.026L10.2535 290.026L6.15354 290.026L6.15354 288.026L10.2535 288.026ZM2.05354 288.026L2.05354 290.026L2.00354 290.026L2.00354 290.076L0.00353986 290.076L0.00354004 288.026L2.05354 288.026ZM0.0035395 294.176L2.00354 294.176L2.00354 298.276L0.00353914 298.276L0.0035395 294.176ZM0.00353878 302.376L2.00354 302.376L2.00354 306.476L0.00353843 306.476L0.00353878 302.376ZM0.00353807 310.576L2.00354 310.576L2.00354 314.676L0.00353771 314.676L0.00353807 310.576ZM0.00353735 318.776L2.00354 318.776L2.00354 322.876L0.00353699 322.876L0.00353735 318.776ZM0.00353663 326.976L2.00354 326.976L2.00354 331.076L0.00353628 331.076L0.00353663 326.976ZM0.00353592 335.176L2.00354 335.176L2.00354 339.276L0.00353556 339.276L0.00353592 335.176ZM0.0035352 343.376L2.00354 343.376L2.00353 347.476L0.00353484 347.476L0.0035352 343.376ZM0.00353448 351.576L2.00353 351.576L2.00353 355.676L0.00353412 355.676L0.00353448 351.576ZM0.00353377 359.776L2.00353 359.776L2.00353 363.876L0.00353341 363.876L0.00353377 359.776ZM0.00353305 367.976L2.00353 367.976L2.00353 368.026L2.19996 368.026L2.19996 370.026L0.00353287 370.026L0.00353305 367.976ZM6.59282 370.026L6.59282 368.026L8.78925 368.026C9.45941 368.026 10.1274 368.016 10.793 367.998L10.8482 369.997C10.1642 370.016 9.47782 370.026 8.78925 370.026L6.59282 370.026Z" fill="white"/>
<path opacity="0.3" fill-rule="evenodd" clip-rule="evenodd" d="M266.004 79.8292L266.004 82.0256L263.954 82.0256L263.954 80.0256L264.004 80.0256L264.004 79.8292L266.004 79.8292ZM255.754 82.0256L259.854 82.0256L259.854 80.0256L255.754 80.0256L255.754 82.0256ZM266.004 75.4363L264.004 75.4363L264.004 73.2399C264.004 72.5698 263.994 71.9018 263.976 71.2362L265.975 71.181C265.994 71.865 266.004 72.5513 266.004 73.2399L266.004 75.4363ZM265.748 67.0808L263.755 67.2468C263.644 65.9127 263.496 64.5891 263.312 63.2772L265.293 63C265.482 64.3488 265.634 65.7095 265.748 67.0808ZM264.61 58.9513L262.648 59.3394C262.389 58.0282 262.093 56.73 261.763 55.4459L263.7 54.9477C264.04 56.2682 264.343 57.6031 264.61 58.9513ZM262.564 50.9992L260.659 51.6061C260.253 50.3334 259.813 49.0761 259.339 47.8355L261.208 47.1219C261.695 48.3976 262.148 49.6904 262.564 50.9992ZM259.634 43.3278L257.809 44.1458C257.263 42.9281 256.685 41.7286 256.074 40.5482L257.85 39.6288C258.478 40.8424 259.073 42.0758 259.634 43.3278ZM255.86 36.0362L254.138 37.0539C253.46 35.9061 252.75 34.7789 252.01 33.6736L253.672 32.5609C254.432 33.6973 255.162 34.8561 255.86 36.0362ZM251.292 29.2132L249.695 30.417C248.893 29.3526 248.061 28.3114 247.202 27.2946L248.729 26.0035C249.613 27.0487 250.467 28.119 251.292 29.2132ZM245.991 22.9419L244.538 24.3162C243.623 23.3483 242.681 22.4062 241.713 21.4908L243.087 20.0377C244.082 20.9786 245.051 21.9471 245.991 22.9419ZM240.026 17.2999L238.735 18.8273C237.718 17.9679 236.677 17.1364 235.612 16.3341L236.816 14.737C237.91 15.5617 238.98 16.4164 240.026 17.2999ZM233.468 12.3574L232.356 14.0194C231.25 13.2794 230.123 12.5695 228.975 11.891L229.993 10.1693C231.173 10.8669 232.332 11.5967 233.468 12.3574ZM226.4 8.17952L225.481 9.95565C224.301 9.34463 223.101 8.7657 221.883 8.21999L222.701 6.39489C223.953 6.95602 225.187 7.55129 226.4 8.17952ZM218.907 4.82153L218.194 6.68988C216.953 6.21601 215.696 5.77585 214.423 5.37051L215.03 3.46482C216.339 3.88163 217.632 4.33425 218.907 4.82153ZM211.082 2.32929L210.583 4.26625C209.299 3.93595 208.001 3.64057 206.69 3.38117L207.078 1.41919C208.426 1.68591 209.761 1.98964 211.082 2.32929ZM203.029 0.736048L202.752 2.71675C201.44 2.53314 200.116 2.38526 198.782 2.27413L198.948 0.281031C200.32 0.395258 201.68 0.547274 203.029 0.736048ZM251.654 82.0256L251.654 80.0256L247.554 80.0256L247.554 82.0256L251.654 82.0256ZM243.454 82.0256L243.454 80.0256L239.354 80.0256L239.354 82.0256L243.454 82.0256ZM235.254 82.0256L235.254 80.0256L231.154 80.0256L231.154 82.0256L235.254 82.0256ZM227.054 82.0256L227.054 80.0256L222.954 80.0256L222.954 82.0256L227.054 82.0256ZM218.854 82.0256L218.854 80.0256L214.754 80.0256L214.754 82.0256L218.854 82.0256ZM210.654 82.0256L210.654 80.0256L206.554 80.0256L206.554 82.0256L210.654 82.0256ZM202.454 82.0256L202.454 80.0256L198.354 80.0256L198.354 82.0256L202.454 82.0256ZM194.254 82.0256L194.254 80.0256L190.154 80.0256L190.154 82.0256L194.254 82.0256ZM186.054 82.0256L186.054 80.0256L186.004 80.0256L186.004 79.9756L184.004 79.9756L184.004 82.0256L186.054 82.0256ZM184.004 75.8756L186.004 75.8756L186.004 71.7756L184.004 71.7756L184.004 75.8756ZM184.004 67.6756L186.004 67.6756L186.004 63.5756L184.004 63.5756L184.004 67.6756ZM184.004 59.4756L186.004 59.4756L186.004 55.3756L184.004 55.3756L184.004 59.4756ZM184.004 51.2756L186.004 51.2756L186.004 47.1756L184.004 47.1756L184.004 51.2756ZM184.004 43.0756L186.004 43.0756L186.004 38.9756L184.004 38.9756L184.004 43.0756ZM184.004 34.8756L186.004 34.8756L186.004 30.7756L184.004 30.7756L184.004 34.8756ZM184.004 26.6756L186.004 26.6756L186.004 22.5756L184.004 22.5756L184.004 26.6756ZM184.004 18.4756L186.004 18.4756L186.004 14.3756L184.004 14.3756L184.004 18.4756ZM184.004 10.2756L186.004 10.2756L186.004 6.17563L184.004 6.17563L184.004 10.2756ZM184.004 2.07563L186.004 2.07563L186.004 2.02563L186.2 2.02563L186.2 0.0256278L184.004 0.0256276L184.004 2.07563ZM190.593 0.0256282L190.593 2.02563L192.789 2.02563C193.459 2.02563 194.127 2.03488 194.793 2.05326L194.848 0.0540252C194.164 0.0351347 193.478 0.0256284 192.789 0.0256284L190.593 0.0256282Z" fill="white"/>
<path opacity="0.2" fill-rule="evenodd" clip-rule="evenodd" d="M274.004 82.0256L356.004 82.0256L356.004 0.0256399L347.218 0.0256391C306.783 0.0256356 274.004 32.8048 274.004 73.2399L274.004 82.0256Z" fill="white"/>
<path opacity="0.2" fill-rule="evenodd" clip-rule="evenodd" d="M368.004 0.0256348L449.004 0.0256418L449.004 82.0256L440.325 82.0256C400.383 82.0256 368.004 49.2465 368.004 8.81135L368.004 0.0256348Z" fill="white"/>
<path opacity="0.2" fill-rule="evenodd" clip-rule="evenodd" d="M541.004 0.0256348L459.004 0.0256276L459.004 82.0256L467.789 82.0256C508.224 82.0256 541.004 49.2465 541.004 8.81135L541.004 0.0256348Z" fill="white"/>
<path opacity="0.3" fill-rule="evenodd" clip-rule="evenodd" d="M541.004 174.829L541.004 177.026L538.954 177.026L538.954 175.026L539.004 175.026L539.004 174.829L541.004 174.829ZM530.754 177.026L534.854 177.026L534.854 175.026L530.754 175.026L530.754 177.026ZM541.004 170.436L539.004 170.436L539.004 168.24C539.004 167.57 538.994 166.902 538.976 166.236L540.975 166.181C540.994 166.865 541.004 167.551 541.004 168.24L541.004 170.436ZM540.748 162.081L538.755 162.247C538.644 160.913 538.496 159.589 538.312 158.277L540.293 158C540.482 159.349 540.634 160.709 540.748 162.081ZM539.61 153.951L537.648 154.339C537.389 153.028 537.093 151.73 536.763 150.446L538.7 149.948C539.04 151.268 539.343 152.603 539.61 153.951ZM537.564 145.999L535.659 146.606C535.253 145.333 534.813 144.076 534.339 142.836L536.208 142.122C536.695 143.398 537.148 144.69 537.564 145.999ZM534.634 138.328L532.809 139.146C532.263 137.928 531.685 136.729 531.074 135.548L532.85 134.629C533.478 135.842 534.073 137.076 534.634 138.328ZM530.86 131.036L529.138 132.054C528.46 130.906 527.75 129.779 527.01 128.674L528.672 127.561C529.432 128.697 530.162 129.856 530.86 131.036ZM526.292 124.213L524.695 125.417C523.893 124.353 523.061 123.311 522.202 122.295L523.729 121.004C524.613 122.049 525.467 123.119 526.292 124.213ZM520.991 117.942L519.538 119.316C518.623 118.348 517.681 117.406 516.713 116.491L518.087 115.038C519.082 115.979 520.051 116.947 520.991 117.942ZM515.026 112.3L513.735 113.827C512.718 112.968 511.677 112.136 510.612 111.334L511.816 109.737C512.91 110.562 513.98 111.416 515.026 112.3ZM508.468 107.357L507.356 109.019C506.25 108.279 505.123 107.57 503.975 106.891L504.993 105.169C506.173 105.867 507.332 106.597 508.468 107.357ZM501.4 103.18L500.481 104.956C499.301 104.345 498.101 103.766 496.883 103.22L497.701 101.395C498.953 101.956 500.187 102.551 501.4 103.18ZM493.907 99.8215L493.194 101.69C491.953 101.216 490.696 100.776 489.423 100.371L490.03 98.4648C491.339 98.8816 492.632 99.3343 493.907 99.8215ZM486.082 97.3293L485.583 99.2662C484.299 98.9359 483.001 98.6406 481.69 98.3812L482.078 96.4192C483.426 96.6859 484.761 96.9896 486.082 97.3293ZM478.029 95.736L477.752 97.7168C476.44 97.5331 475.116 97.3853 473.782 97.2741L473.948 95.281C475.32 95.3953 476.68 95.5473 478.029 95.736ZM526.654 177.026L526.654 175.026L522.554 175.026L522.554 177.026L526.654 177.026ZM518.454 177.026L518.454 175.026L514.354 175.026L514.354 177.026L518.454 177.026ZM510.254 177.026L510.254 175.026L506.154 175.026L506.154 177.026L510.254 177.026ZM502.054 177.026L502.054 175.026L497.954 175.026L497.954 177.026L502.054 177.026ZM493.854 177.026L493.854 175.026L489.754 175.026L489.754 177.026L493.854 177.026ZM485.654 177.026L485.654 175.026L481.554 175.026L481.554 177.026L485.654 177.026ZM477.454 177.026L477.454 175.026L473.354 175.026L473.354 177.026L477.454 177.026ZM469.254 177.026L469.254 175.026L465.154 175.026L465.154 177.026L469.254 177.026ZM461.054 177.026L461.054 175.026L461.004 175.026L461.004 174.976L459.004 174.976L459.004 177.026L461.054 177.026ZM459.004 170.876L461.004 170.876L461.004 166.776L459.004 166.776L459.004 170.876ZM459.004 162.676L461.004 162.676L461.004 158.576L459.004 158.576L459.004 162.676ZM459.004 154.476L461.004 154.476L461.004 150.376L459.004 150.376L459.004 154.476ZM459.004 146.276L461.004 146.276L461.004 142.176L459.004 142.176L459.004 146.276ZM459.004 138.076L461.004 138.076L461.004 133.976L459.004 133.976L459.004 138.076ZM459.004 129.876L461.004 129.876L461.004 125.776L459.004 125.776L459.004 129.876ZM459.004 121.676L461.004 121.676L461.004 117.576L459.004 117.576L459.004 121.676ZM459.004 113.476L461.004 113.476L461.004 109.376L459.004 109.376L459.004 113.476ZM459.004 105.276L461.004 105.276L461.004 101.176L459.004 101.176L459.004 105.276ZM459.004 97.0756L461.004 97.0756L461.004 97.0256L461.2 97.0256L461.2 95.0256L459.004 95.0256L459.004 97.0756ZM465.593 95.0256L465.593 97.0256L467.789 97.0256C468.459 97.0256 469.127 97.0349 469.793 97.0533L469.848 95.054C469.164 95.0351 468.478 95.0256 467.789 95.0256L465.593 95.0256Z" fill="white"/>
<path opacity="0.2" fill-rule="evenodd" clip-rule="evenodd" d="M369.004 95.0256L451.004 95.0256L451.004 177.026L442.218 177.026C401.783 177.026 369.004 144.246 369.004 103.811L369.004 95.0256Z" fill="white"/>
<path opacity="0.3" fill-rule="evenodd" clip-rule="evenodd" d="M2.00354 2.22206L2.00354 0.0256348L4.05355 0.0256349L4.05355 2.02563L4.00354 2.02563L4.00354 2.22206L2.00354 2.22206ZM12.2536 0.0256357L8.15355 0.0256353L8.15355 2.02564L12.2536 2.02564L12.2536 0.0256357ZM2.00354 6.61492L4.00354 6.61492L4.00354 8.81135C4.00354 9.48152 4.01279 10.1495 4.03117 10.8151L2.03193 10.8703C2.01304 10.1863 2.00354 9.49992 2.00354 8.81135L2.00354 6.61492ZM2.25894 14.9704L4.25204 14.8044C4.36316 16.1386 4.51104 17.4621 4.69466 18.7741L2.71396 19.0513C2.52518 17.7025 2.37316 16.3418 2.25894 14.9704ZM3.3971 23.1L5.35908 22.7119C5.61847 24.0231 5.91386 25.3213 6.24415 26.6054L4.3072 27.1036C3.96755 25.7831 3.66382 24.4482 3.3971 23.1ZM5.44272 31.052L7.34842 30.4451C7.75375 31.7179 8.19392 32.9751 8.66779 34.2157L6.79944 34.9294C6.31216 33.6537 5.85954 32.3608 5.44272 31.052ZM8.3728 38.7235L10.1979 37.9055C10.7436 39.1231 11.3225 40.3227 11.9336 41.503L10.1574 42.4225C9.5292 41.2089 8.93393 39.9755 8.3728 38.7235ZM12.1472 46.0151L13.8689 44.9973C14.5474 46.1452 15.2573 47.2724 15.9973 48.3777L14.3354 49.4904C13.5746 48.354 12.8448 47.1952 12.1472 46.0151ZM16.7149 52.838L18.312 51.6342C19.1143 52.6986 19.9458 53.7398 20.8052 54.7567L19.2778 56.0477C18.3943 55.0025 17.5396 53.9322 16.7149 52.838ZM22.0157 59.1093L23.4687 57.7351C24.3841 58.7029 25.3262 59.6451 26.2941 60.5604L24.9198 62.0135C23.925 61.0727 22.9565 60.1042 22.0157 59.1093ZM27.9814 64.7514L29.2725 63.2239C30.2893 64.0834 31.3305 64.9149 32.395 65.7172L31.1911 67.3143C30.0969 66.4896 29.0266 65.6349 27.9814 64.7514ZM34.5388 69.6938L35.6515 68.0319C36.7568 68.7719 37.884 69.4818 39.0319 70.1603L38.0141 71.882C36.834 71.1844 35.6752 70.4546 34.5388 69.6938ZM41.6067 73.8718L42.5261 72.0956C43.7065 72.7066 44.906 73.2856 46.1237 73.8313L45.3057 75.6564C44.0537 75.0952 42.8203 74.5 41.6067 73.8718ZM49.0998 77.2297L49.8134 75.3614C51.054 75.8353 52.3113 76.2754 53.5841 76.6808L52.9771 78.5865C51.6683 78.1696 50.3755 77.717 49.0998 77.2297ZM56.9256 79.722L57.4238 77.785C58.7079 78.1153 60.0061 78.4107 61.3173 78.6701L60.9292 80.6321C59.581 80.3654 58.2461 80.0616 56.9256 79.722ZM64.9779 81.3152L65.2551 79.3345C66.567 79.5181 67.8906 79.666 69.2247 79.7771L69.0587 81.7702C67.6874 81.656 66.3267 81.504 64.9779 81.3152ZM16.3535 0.025636L16.3535 2.02564L20.4535 2.02564L20.4535 0.0256364L16.3535 0.025636ZM24.5535 0.0256367L24.5535 2.02564L28.6535 2.02564L28.6535 0.0256371L24.5535 0.0256367ZM32.7535 0.0256375L32.7535 2.02564L36.8535 2.02564L36.8535 0.0256378L32.7535 0.0256375ZM40.9535 0.0256382L40.9535 2.02564L45.0535 2.02564L45.0535 0.0256385L40.9535 0.0256382ZM49.1535 0.0256389L49.1535 2.02564L53.2535 2.02564L53.2535 0.0256392L49.1535 0.0256389ZM57.3535 0.0256396L57.3535 2.02564L61.4535 2.02564L61.4535 0.02564L57.3535 0.0256396ZM65.5535 0.0256403L65.5535 2.02564L69.6535 2.02564L69.6535 0.0256407L65.5535 0.0256403ZM73.7535 0.025641L73.7535 2.02564L77.8535 2.02564L77.8535 0.0256414L73.7535 0.025641ZM81.9535 0.0256418L81.9535 2.02564L82.0035 2.02564L82.0035 2.07565L84.0035 2.07565L84.0035 0.0256419L81.9535 0.0256418ZM84.0035 6.17565L82.0035 6.17565L82.0035 10.2757L84.0035 10.2757L84.0035 6.17565ZM84.0035 14.3756L82.0035 14.3756L82.0035 18.4756L84.0035 18.4756L84.0035 14.3756ZM84.0035 22.5757L82.0035 22.5757L82.0035 26.6756L84.0035 26.6756L84.0035 22.5757ZM84.0035 30.7756L82.0035 30.7756L82.0035 34.8756L84.0035 34.8756L84.0035 30.7756ZM84.0035 38.9756L82.0035 38.9756L82.0035 43.0756L84.0035 43.0756L84.0035 38.9756ZM84.0035 47.1756L82.0035 47.1756L82.0035 51.2756L84.0035 51.2756L84.0035 47.1756ZM84.0035 55.3756L82.0035 55.3756L82.0035 59.4756L84.0035 59.4756L84.0035 55.3756ZM84.0035 63.5756L82.0035 63.5756L82.0035 67.6756L84.0035 67.6756L84.0035 63.5756ZM84.0035 71.7756L82.0035 71.7756L82.0035 75.8756L84.0035 75.8756L84.0035 71.7756ZM84.0035 79.9756L82.0035 79.9756L82.0035 80.0256L81.8071 80.0256L81.8071 82.0256L84.0035 82.0256L84.0035 79.9756ZM77.4142 82.0256L77.4142 80.0256L75.2178 80.0256C74.5477 80.0256 73.8797 80.0164 73.2141 79.998L73.1589 81.9972C73.8429 82.0161 74.5292 82.0256 75.2178 82.0256L77.4142 82.0256Z" fill="white"/>
<path opacity="0.2" fill-rule="evenodd" clip-rule="evenodd" d="M175.004 0.0256348L94.0036 0.0256277L94.0036 82.0256L102.682 82.0256C142.624 82.0256 175.004 49.2465 175.004 8.81135L175.004 0.0256348Z" fill="white"/>
<path opacity="0.2" fill-rule="evenodd" clip-rule="evenodd" d="M175.004 177.026L94.0035 177.026L94.0035 95.0256L102.682 95.0256C142.624 95.0256 175.004 127.805 175.004 168.24L175.004 177.026Z" fill="white"/>
<path opacity="0.2" fill-rule="evenodd" clip-rule="evenodd" d="M4.00354 95.0256L85.0035 95.0256L85.0035 177.026L76.325 177.026C36.3829 177.026 4.00354 144.246 4.00354 103.811L4.00354 95.0256Z" fill="white"/>
<path opacity="0.3" fill-rule="evenodd" clip-rule="evenodd" d="M276.004 97.2221L276.004 95.0256L278.029 95.0256L278.029 97.0256L278.004 97.0256L278.004 97.2221L276.004 97.2221ZM286.129 95.0256L282.079 95.0256L282.079 97.0256L286.129 97.0256L286.129 95.0256ZM276.004 101.615L278.004 101.615L278.004 103.811C278.004 104.478 278.013 105.142 278.031 105.804L276.031 105.858C276.013 105.178 276.004 104.496 276.004 103.811L276.004 101.615ZM276.253 109.933L278.246 109.77C278.355 111.097 278.499 112.413 278.678 113.718L276.697 113.99C276.513 112.649 276.364 111.297 276.253 109.933ZM277.364 118.016L279.327 117.635C279.581 118.94 279.869 120.232 280.192 121.51L278.253 121.999C277.921 120.686 277.624 119.358 277.364 118.016ZM279.362 125.929L281.271 125.332C281.667 126.6 282.098 127.852 282.561 129.088L280.689 129.79C280.212 128.52 279.77 127.232 279.362 125.929ZM282.228 133.571L284.059 132.766C284.593 133.98 285.16 135.177 285.758 136.354L283.975 137.261C283.36 136.05 282.777 134.82 282.228 133.571ZM285.925 140.847L287.655 139.843C288.321 140.989 289.017 142.115 289.743 143.22L288.072 144.318C287.325 143.183 286.61 142.025 285.925 140.847ZM290.408 147.666L292.015 146.476C292.804 147.541 293.621 148.584 294.466 149.602L292.926 150.879C292.058 149.832 291.218 148.761 290.408 147.666ZM295.62 153.946L297.085 152.586C297.987 153.556 298.914 154.501 299.867 155.419L298.48 156.859C297.5 155.915 296.546 154.944 295.62 153.946ZM301.498 159.608L302.803 158.092C303.806 158.956 304.833 159.791 305.883 160.597L304.665 162.184C303.585 161.355 302.529 160.496 301.498 159.608ZM307.972 164.578L309.098 162.926C310.191 163.67 311.305 164.385 312.439 165.068L311.407 166.781C310.241 166.079 309.095 165.344 307.972 164.578ZM314.963 168.787L315.895 167.018C317.064 167.634 318.251 168.218 319.457 168.768L318.626 170.587C317.386 170.021 316.164 169.421 314.963 168.787ZM322.386 172.176L323.112 170.312C324.341 170.79 325.588 171.235 326.849 171.644L326.232 173.547C324.934 173.125 323.652 172.668 322.386 172.176ZM330.151 174.695L330.658 172.76C331.932 173.094 333.221 173.392 334.522 173.655L334.127 175.615C332.788 175.345 331.462 175.038 330.151 174.695ZM338.149 176.307L338.431 174.327C339.734 174.512 341.048 174.662 342.373 174.774L342.204 176.767C340.841 176.651 339.489 176.498 338.149 176.307ZM290.179 95.0256L290.179 97.0256L294.229 97.0256L294.229 95.0256L290.179 95.0256ZM298.279 95.0256L298.279 97.0256L302.329 97.0256L302.329 95.0256L298.279 95.0256ZM306.379 95.0256L306.379 97.0256L310.429 97.0256L310.429 95.0256L306.379 95.0256ZM314.479 95.0256L314.479 97.0256L318.529 97.0256L318.529 95.0256L314.479 95.0256ZM322.579 95.0256L322.579 97.0256L326.629 97.0256L326.629 95.0256L322.579 95.0256ZM330.679 95.0256L330.679 97.0256L334.729 97.0256L334.729 95.0256L330.679 95.0256ZM338.779 95.0256L338.779 97.0256L342.829 97.0256L342.829 95.0256L338.779 95.0256ZM346.879 95.0256L346.879 97.0256L350.929 97.0256L350.929 95.0256L346.879 95.0256ZM354.979 95.0256L354.979 97.0256L355.004 97.0256L355.004 97.0757L357.004 97.0757L357.004 95.0256L354.979 95.0256ZM357.004 101.176L355.004 101.176L355.004 105.276L357.004 105.276L357.004 101.176ZM357.004 109.376L355.004 109.376L355.004 113.476L357.004 113.476L357.004 109.376ZM357.004 117.576L355.004 117.576L355.004 121.676L357.004 121.676L357.004 117.576ZM357.004 125.776L355.004 125.776L355.004 129.876L357.004 129.876L357.004 125.776ZM357.004 133.976L355.004 133.976L355.004 138.076L357.004 138.076L357.004 133.976ZM357.004 142.176L355.004 142.176L355.004 146.276L357.004 146.276L357.004 142.176ZM357.004 150.376L355.004 150.376L355.004 154.476L357.004 154.476L357.004 150.376ZM357.004 158.576L355.004 158.576L355.004 162.676L357.004 162.676L357.004 158.576ZM357.004 166.776L355.004 166.776L355.004 170.876L357.004 170.876L357.004 166.776ZM357.004 174.976L355.004 174.976L355.004 175.026L354.834 175.026L354.834 177.026L357.004 177.026L357.004 174.976ZM350.495 177.026L350.495 175.026L348.325 175.026C347.659 175.026 346.996 175.016 346.335 174.998L346.279 176.997C346.958 177.016 347.641 177.026 348.325 177.026L350.495 177.026Z" fill="white"/>
<path opacity="0.2" fill-rule="evenodd" clip-rule="evenodd" d="M266.004 95.0256L184.004 95.0256L184.004 177.026L192.789 177.026C233.224 177.026 266.004 144.246 266.004 103.811L266.004 95.0256Z" fill="white"/>
</g>
</svg>
