<svg width="667" height="224" viewBox="0 0 667 224" fill="none" xmlns="http://www.w3.org/2000/svg">
<path d="M292.706 19.7183L287.346 20.0183C286.733 12.3116 283.466 8.45828 277.546 8.45828H260.396V26.9883H269.126C272.186 26.9883 273.946 23.9016 274.406 17.7283H279.236L278.086 41.6183H273.416C272.896 35.2883 271.296 32.1183 268.586 32.1183H260.396V53.4083H274.786C283.366 53.4083 288.116 47.9449 289.036 37.0183L294.546 37.5583L292.706 59.3783H241.866V55.0183C246.406 55.0183 248.676 53.8416 248.676 51.4883V10.4883C248.676 8.13495 246.406 6.95828 241.866 6.95828V2.48828H292.706V19.7183Z" fill="black"/>
<path d="M345.776 51.5682C345.776 53.8682 347.793 55.0182 351.826 55.0182V59.3782H335.336V51.5682C334.591 52.7356 333.734 53.8274 332.776 54.8282C331.75 55.8908 330.591 56.8153 329.326 57.5782C327.962 58.4018 326.492 59.0343 324.956 59.4582C323.224 59.9354 321.433 60.1676 319.636 60.1482C315.636 60.1482 312.636 59.2549 310.636 57.4682C308.636 55.6815 307.666 52.7715 307.726 48.7382V28.2182C307.726 25.9182 305.506 24.7682 301.066 24.7682V20.4082H317.916V45.2882C317.916 48.4982 318.356 50.7782 319.256 52.1282C319.739 52.8092 320.392 53.352 321.15 53.7029C321.908 54.0537 322.744 54.2003 323.576 54.1282C326.127 54.0894 328.567 53.077 330.396 51.2982C332.571 49.2957 334.249 46.8132 335.296 44.0482V28.2882C335.31 27.7413 335.165 27.2022 334.879 26.7357C334.594 26.2691 334.179 25.895 333.686 25.6582C332.097 24.9683 330.365 24.6667 328.636 24.7782V20.4182H345.786L345.776 51.5682Z" fill="black"/>
<path d="M399.846 51.5699C399.846 53.8699 402.089 55.0199 406.576 55.0199V59.3799H392.106L391.496 53.0299C390.308 55.5895 388.244 57.6397 385.676 58.8099C382.74 60.1195 379.55 60.7615 376.336 60.6899C373.913 60.7001 371.504 60.3116 369.206 59.5399C366.975 58.78 364.947 57.5214 363.276 55.8599C361.47 54.0233 360.084 51.8155 359.216 49.3899C358.154 46.3278 357.65 43.1001 357.726 39.8599C357.635 36.5373 358.206 33.2297 359.406 30.1299C360.403 27.6668 361.917 25.4467 363.846 23.6199C365.671 21.9507 367.843 20.7074 370.206 19.9799C372.637 19.2403 375.165 18.8662 377.706 18.8699C380.004 18.8505 382.291 19.1878 384.486 19.8699C386.305 20.3845 387.972 21.3315 389.346 22.6299V8.22993C389.346 5.92993 387.126 4.77993 382.686 4.77993V0.419922H399.846V51.5699ZM379.476 23.8499C377.694 23.7986 375.927 24.1939 374.336 24.9999C372.921 25.7594 371.723 26.8677 370.856 28.2199C369.902 29.7353 369.225 31.4079 368.856 33.1599C368.408 35.2329 368.19 37.3491 368.206 39.4699C368.187 41.581 368.406 43.6875 368.856 45.7499C369.229 47.4884 369.906 49.1473 370.856 50.6499C371.723 52.0021 372.921 53.1105 374.336 53.8699C375.927 54.676 377.694 55.0713 379.476 55.0199C381.23 55.0766 382.969 54.6805 384.526 53.8699C385.9 53.1078 387.048 51.9972 387.856 50.6499C388.752 49.137 389.375 47.4785 389.696 45.7499C390.093 43.6806 390.284 41.577 390.266 39.4699C390.282 37.353 390.092 35.2396 389.696 33.1599C389.379 31.4175 388.756 29.7451 387.856 28.2199C387.048 26.8727 385.9 25.7621 384.526 24.9999C382.969 24.1893 381.23 23.7933 379.476 23.8499V23.8499Z" fill="black"/>
<path d="M454.896 39.7391C454.896 46.4057 453.06 51.5657 449.386 55.2191C445.713 58.8724 440.38 60.6957 433.386 60.6891C430.725 60.6883 428.074 60.3523 425.496 59.6891C423.038 59.1051 420.755 57.9393 418.841 56.2896C416.927 54.6398 415.437 52.5545 414.496 50.2091C413.288 47.1604 412.717 43.8968 412.816 40.6191C412.816 33.6391 414.576 28.2757 418.096 24.5291C421.616 20.7824 427.003 18.9091 434.256 18.9091C436.955 18.8888 439.645 19.225 442.256 19.9091C444.745 20.5391 447.045 21.7609 448.96 23.4707C450.875 25.1804 452.349 27.3274 453.256 29.7291C454.452 32.9265 455.009 36.3273 454.896 39.7391V39.7391ZM434.186 23.9291C430.366 23.9291 427.593 25.1657 425.866 27.6391C424.14 30.1124 423.276 33.6624 423.276 38.2891C423.227 41.1609 423.455 44.0309 423.956 46.8591C424.268 48.7463 424.948 50.5539 425.956 52.1791C426.725 53.3869 427.84 54.3348 429.156 54.8991C430.529 55.434 431.993 55.6956 433.466 55.6691C437.466 55.6691 440.29 54.3157 441.936 51.6091C443.566 48.8991 444.376 45.0791 444.376 40.1191C444.431 37.434 444.19 34.7512 443.656 32.1191C443.305 30.3264 442.591 28.6248 441.556 27.1191C440.74 25.9767 439.616 25.0891 438.316 24.5591C436.991 24.0947 435.59 23.881 434.186 23.9291Z" fill="black"/>
<path d="M477.646 27.6782C478.831 25.1073 480.699 22.9109 483.046 21.3282C485.09 20.0169 487.468 19.3225 489.896 19.3282C491.077 19.3409 492.249 19.5262 493.376 19.8782C494.562 20.2348 495.669 20.8153 496.636 21.5882C497.632 22.4069 498.44 23.43 499.006 24.5882C499.649 25.9142 499.964 27.375 499.926 28.8482C499.997 30.5818 499.44 32.2828 498.356 33.6382C497.839 34.2549 497.186 34.7443 496.449 35.0685C495.712 35.3928 494.911 35.5432 494.106 35.5082C493.369 35.5618 492.629 35.4644 491.931 35.2219C491.233 34.9795 490.591 34.5971 490.046 34.0982C489.6 33.6511 489.247 33.1189 489.01 32.5331C488.773 31.9474 488.656 31.32 488.666 30.6882C488.653 30.0939 488.758 29.5029 488.976 28.9499C489.194 28.397 489.521 27.8932 489.936 27.4682C490.993 26.5143 492.384 26.0181 493.806 26.0882C493.357 25.2927 492.652 24.6725 491.806 24.3282C490.891 23.9188 489.899 23.7108 488.896 23.7182C487.879 23.7416 486.878 23.9766 485.956 24.4082C484.825 24.9234 483.788 25.6229 482.886 26.4782C481.777 27.5338 480.813 28.7307 480.016 30.0382C479.017 31.6577 478.221 33.3941 477.646 35.2082V51.5882C477.649 52.1688 477.836 52.7336 478.179 53.2022C478.522 53.6708 479.004 54.0193 479.556 54.1982C481.346 54.8427 483.246 55.1281 485.146 55.0382V59.3982H460.566V55.0382C464.953 55.0382 467.149 53.8882 467.156 51.5882V28.2182C467.156 25.9182 464.959 24.7682 460.566 24.7682V20.4082H477.646V27.6782Z" fill="black"/>
<path d="M544.726 51.8587C544.726 54.1187 545.496 55.2387 547.026 55.2387C547.362 55.2486 547.693 55.159 547.978 54.981C548.263 54.8031 548.488 54.5447 548.626 54.2387C548.994 53.5141 549.179 52.711 549.166 51.8987V47.3787H552.766V50.8287C552.802 52.2859 552.596 53.7389 552.156 55.1287C551.807 56.2035 551.204 57.1779 550.396 57.9687C549.62 58.6815 548.689 59.2051 547.676 59.4987C546.568 59.815 545.419 59.97 544.266 59.9587C543.06 59.9901 541.861 59.7687 540.746 59.3087C539.821 58.908 538.987 58.3227 538.296 57.5887C537.633 56.8782 537.114 56.0463 536.766 55.1387C536.401 54.1946 536.117 53.221 535.916 52.2287C535.308 53.4116 534.523 54.4942 533.586 55.4387C532.531 56.5054 531.333 57.4207 530.026 58.1587C528.558 58.9855 526.988 59.6175 525.356 60.0387C523.531 60.5097 521.652 60.7416 519.766 60.7287C514.966 60.7287 511.456 59.7287 509.236 57.7287C508.122 56.7254 507.245 55.4875 506.667 54.104C506.09 52.7206 505.826 51.2262 505.896 49.7287C505.833 47.9532 506.244 46.1928 507.086 44.6287C507.896 43.2786 509.009 42.1352 510.336 41.2887C511.855 40.3183 513.51 39.5802 515.246 39.0987C517.106 38.5687 519.096 38.0987 521.246 37.6487C523.396 37.1987 525.556 36.7887 527.826 36.3787C530.096 35.9687 532.356 35.4687 534.606 34.8487V32.4787C534.618 31.2606 534.45 30.0474 534.106 28.8787C533.797 27.7895 533.25 26.7822 532.506 25.9287C531.729 25.0668 530.774 24.3844 529.706 23.9287C528.437 23.4156 527.075 23.1672 525.706 23.1987C523.498 23.1509 521.293 23.41 519.156 23.9687C517.616 24.37 516.172 25.0737 514.906 26.0387C515.999 26.1046 517.046 26.5023 517.906 27.1787C518.315 27.5256 518.638 27.9626 518.85 28.4553C519.062 28.9481 519.156 29.4832 519.126 30.0187C519.152 30.6629 519.042 31.3054 518.805 31.9047C518.567 32.5041 518.206 33.047 517.746 33.4987C517.193 33.9781 516.55 34.3434 515.855 34.5733C515.16 34.8033 514.426 34.8935 513.696 34.8387C512.968 34.8923 512.237 34.7948 511.549 34.5521C510.86 34.3094 510.23 33.9269 509.696 33.4287C508.748 32.339 508.267 30.9202 508.356 29.4787C508.383 28.1107 508.807 26.7799 509.576 25.6487C510.498 24.2731 511.697 23.1048 513.096 22.2187C514.861 21.1113 516.788 20.2848 518.806 19.7687C521.344 19.1157 523.957 18.803 526.576 18.8387C528.865 18.8347 531.149 19.0523 533.396 19.4887C535.455 19.8761 537.426 20.6315 539.216 21.7187C540.899 22.7775 542.278 24.2559 543.216 26.0087C544.278 28.1385 544.791 30.5002 544.706 32.8787L544.726 51.8587ZM534.726 37.8587C531.456 38.6687 528.626 39.4287 526.226 40.1087C524.162 40.6672 522.154 41.4136 520.226 42.3387C518.861 42.96 517.656 43.8873 516.706 45.0487C515.915 46.1653 515.511 47.5106 515.556 48.8787C515.515 49.6946 515.667 50.5088 516.001 51.2545C516.334 52.0002 516.84 52.6562 517.476 53.1687C518.743 54.1887 520.683 54.6987 523.296 54.6987C525.737 54.7441 528.14 54.0956 530.226 52.8287C532.045 51.7654 533.582 50.2803 534.706 48.4987L534.726 37.8587Z" fill="black"/>
<path d="M259.476 96.6493C256.296 96.6493 254.706 97.4726 254.706 99.1193V130.219C254.706 131.859 256.296 132.679 259.476 132.679V134.559H244.336V132.679C247.55 132.679 249.156 131.859 249.156 130.219V99.1193C249.156 97.4726 247.55 96.6493 244.336 96.6493V94.7793H259.436L259.476 96.6493Z" fill="black"/>
<path d="M294.486 130.29C294.486 131.89 296.073 132.69 299.246 132.69V134.57H285.496V132.69C288.276 132.69 289.666 131.89 289.666 130.29V115.06C289.666 112.846 289.256 111.286 288.436 110.38C288.034 109.932 287.537 109.578 286.983 109.343C286.428 109.108 285.828 108.997 285.226 109.02C284.106 109.033 282.998 109.25 281.956 109.66C280.801 110.097 279.698 110.66 278.666 111.34C277.617 112.035 276.648 112.843 275.776 113.75C274.944 114.6 274.231 115.558 273.656 116.6V130.29C273.656 131.89 275.056 132.69 277.836 132.69V134.57H264.126V132.69C267.273 132.69 268.846 131.89 268.846 130.29V111.53C268.846 109.89 267.273 109.07 264.126 109.07V107.29H273.656V112.75C275.23 111.086 277.043 109.667 279.036 108.54C281.173 107.341 283.586 106.724 286.036 106.75C288.228 106.633 290.393 107.276 292.166 108.57C293.686 109.776 294.446 111.823 294.446 114.71L294.486 130.29Z" fill="black"/>
<path d="M311.826 107.29H319.106L318.846 110.39C317.766 110.174 316.674 110.024 315.576 109.94C314.436 109.85 313.186 109.8 311.826 109.8V130.09C311.826 131.7 312.726 132.5 314.506 132.5C314.845 132.535 315.187 132.488 315.504 132.363C315.821 132.237 316.103 132.037 316.326 131.78C316.688 131.292 316.878 130.697 316.866 130.09V126.45H318.866V129.56C318.874 130.278 318.81 130.995 318.676 131.7C318.565 132.316 318.3 132.894 317.906 133.38C317.463 133.898 316.89 134.288 316.246 134.51C315.33 134.808 314.369 134.944 313.406 134.91C312.526 134.983 311.64 134.871 310.806 134.579C309.973 134.288 309.209 133.825 308.566 133.22C307.442 131.91 306.875 130.212 306.986 128.49V109.82H302.216V107.95C303.147 107.892 304.071 107.748 304.976 107.52C305.769 107.335 306.497 106.941 307.086 106.38C307.705 105.751 308.165 104.983 308.426 104.14C308.782 102.94 308.944 101.691 308.906 100.44V99.2899L311.796 98.9199L311.826 107.29Z" fill="black"/>
<path d="M328.156 120.05C328.156 124.123 328.923 127.333 330.456 129.68C331.175 130.819 332.183 131.747 333.378 132.369C334.573 132.991 335.911 133.285 337.256 133.22C339.432 133.256 341.574 132.689 343.446 131.58C344.414 130.934 345.246 130.103 345.892 129.135C346.539 128.167 346.989 127.082 347.216 125.94L349.356 126.74C348.997 127.891 348.504 128.995 347.886 130.03C347.256 131.088 346.452 132.031 345.506 132.82C344.467 133.658 343.289 134.308 342.026 134.74C340.489 135.251 338.876 135.498 337.256 135.47C335.585 135.464 333.922 135.246 332.306 134.82C330.665 134.408 329.137 133.632 327.836 132.55C326.424 131.332 325.314 129.802 324.596 128.08C323.685 125.799 323.256 123.355 323.336 120.9C323.328 118.887 323.666 116.888 324.336 114.99C324.933 113.262 325.879 111.676 327.116 110.33C328.367 109.013 329.893 107.988 331.586 107.33C333.498 106.589 335.536 106.226 337.586 106.26C341.806 106.26 345.003 107.463 347.176 109.87C349.35 112.277 350.436 115.677 350.436 120.07L328.156 120.05ZM345.396 118.05C345.525 115.564 344.779 113.112 343.286 111.12C342.559 110.248 341.637 109.559 340.595 109.107C339.553 108.656 338.42 108.455 337.286 108.52C336.174 108.515 335.068 108.697 334.016 109.06C332.986 109.418 332.04 109.983 331.236 110.72C330.375 111.553 329.695 112.553 329.236 113.66C328.666 115.059 328.328 116.542 328.236 118.05H345.396Z" fill="black"/>
<path d="M364.136 112.5C365.068 110.677 366.497 109.155 368.256 108.11C369.721 107.257 371.381 106.795 373.076 106.77C373.856 106.776 374.63 106.894 375.376 107.12C376.153 107.348 376.879 107.721 377.516 108.22C378.187 108.758 378.727 109.442 379.096 110.22C379.533 111.158 379.745 112.185 379.716 113.22C379.763 114.15 379.444 115.062 378.826 115.76C378.499 116.08 378.109 116.329 377.68 116.489C377.251 116.649 376.793 116.717 376.336 116.69C375.894 116.723 375.451 116.664 375.033 116.518C374.614 116.372 374.231 116.141 373.906 115.84C373.642 115.578 373.433 115.266 373.29 114.923C373.148 114.58 373.075 114.211 373.076 113.84C373.064 113.434 373.149 113.031 373.323 112.664C373.497 112.298 373.755 111.977 374.076 111.73C374.869 111.163 375.834 110.887 376.806 110.95C376.483 110.308 375.929 109.812 375.256 109.56C374.477 109.234 373.64 109.07 372.796 109.08C372.118 109.092 371.445 109.2 370.796 109.4C369.997 109.658 369.254 110.065 368.606 110.6C367.752 111.299 366.995 112.109 366.356 113.01C365.499 114.215 364.781 115.513 364.216 116.88V130.29C364.216 131.89 366 132.69 369.566 132.69V134.57H354.606V132.69C357.746 132.69 359.316 131.89 359.316 130.29V111.53C359.316 109.89 357.746 109.07 354.606 109.07V107.29H364.136V112.5Z" fill="black"/>
<path d="M414.246 130.289C414.246 131.889 415.826 132.689 419.006 132.689V134.569H405.246V132.689C408.033 132.689 409.426 131.889 409.426 130.289V115.059C409.426 112.846 409.016 111.286 408.196 110.379C407.793 109.932 407.296 109.579 406.742 109.344C406.187 109.109 405.588 108.998 404.986 109.019C403.866 109.033 402.759 109.25 401.716 109.659C399.377 110.545 397.265 111.942 395.536 113.749C394.704 114.599 393.991 115.558 393.416 116.599V130.289C393.416 131.889 394.81 132.689 397.596 132.689V134.569H383.886V132.689C387.026 132.689 388.596 131.889 388.596 130.289V111.529C388.596 109.889 387.026 109.069 383.886 109.069V107.289H393.416V112.749C394.988 111.084 396.801 109.664 398.796 108.539C400.933 107.341 403.346 106.723 405.796 106.749C407.988 106.635 410.152 107.277 411.926 108.569C413.446 109.776 414.206 111.823 414.206 114.709L414.246 130.289Z" fill="black"/>
<path d="M448.876 130.058C448.876 131.668 449.416 132.468 450.486 132.468C450.73 132.469 450.969 132.399 451.173 132.265C451.378 132.132 451.539 131.942 451.636 131.718C451.908 131.208 452.045 130.637 452.036 130.058V126.418H453.966V129.518C454.069 130.939 453.741 132.357 453.026 133.588C452.406 134.478 451.236 134.928 449.526 134.928C448.8 134.952 448.08 134.787 447.436 134.448C446.884 134.146 446.413 133.714 446.066 133.188C445.719 132.653 445.459 132.066 445.296 131.448C445.116 130.817 444.989 130.171 444.916 129.518C444.443 130.367 443.827 131.128 443.096 131.768C442.265 132.522 441.337 133.161 440.336 133.668C439.243 134.242 438.084 134.681 436.886 134.978C435.609 135.305 434.295 135.47 432.976 135.468C429.556 135.468 427.059 134.778 425.486 133.398C424.69 132.676 424.065 131.785 423.657 130.79C423.248 129.795 423.067 128.722 423.126 127.648C423.082 126.379 423.408 125.125 424.066 124.038C424.709 123.029 425.579 122.183 426.606 121.568C427.762 120.872 429.007 120.334 430.306 119.968C431.696 119.558 433.156 119.198 434.696 118.898C436.236 118.598 437.786 118.318 439.376 118.068C440.966 117.818 442.486 117.508 443.956 117.158V115.498C444.016 113.695 443.447 111.928 442.346 110.498C441.721 109.805 440.946 109.263 440.079 108.917C439.212 108.57 438.277 108.427 437.346 108.498C435.511 108.455 433.68 108.691 431.916 109.198C430.724 109.524 429.618 110.107 428.676 110.908C429.372 110.977 430.028 111.268 430.546 111.738C430.808 111.969 431.015 112.254 431.154 112.574C431.292 112.894 431.358 113.24 431.346 113.588C431.36 113.996 431.291 114.403 431.146 114.784C431 115.166 430.779 115.514 430.496 115.808C430.177 116.113 429.798 116.349 429.383 116.5C428.968 116.652 428.527 116.716 428.086 116.688C427.647 116.721 427.206 116.656 426.795 116.499C426.383 116.341 426.012 116.095 425.706 115.778C425.127 115.117 424.829 114.256 424.876 113.378C424.902 112.496 425.18 111.639 425.676 110.908C426.291 109.977 427.104 109.191 428.056 108.608C429.256 107.864 430.556 107.295 431.916 106.918C433.633 106.452 435.407 106.229 437.186 106.258C438.731 106.249 440.272 106.4 441.786 106.708C443.118 106.969 444.383 107.496 445.506 108.258C446.589 109.018 447.449 110.054 447.996 111.258C448.652 112.764 448.963 114.397 448.906 116.038L448.876 130.058ZM444.006 119.058C441.186 119.628 438.756 120.178 436.726 120.688C435.013 121.104 433.34 121.669 431.726 122.378C430.6 122.841 429.599 123.564 428.806 124.488C428.172 125.328 427.841 126.357 427.866 127.408C427.818 128.118 427.953 128.828 428.258 129.47C428.562 130.113 429.027 130.666 429.606 131.078C431.116 131.968 432.857 132.386 434.606 132.278C435.663 132.286 436.715 132.152 437.736 131.878C438.669 131.642 439.574 131.307 440.436 130.878C441.211 130.48 441.934 129.986 442.586 129.408C443.128 128.919 443.611 128.369 444.026 127.768L444.006 119.058Z" fill="black"/>
<path d="M465.426 107.29H472.706L472.436 110.39C471.356 110.174 470.264 110.024 469.166 109.94C468.026 109.85 466.776 109.8 465.426 109.8V130.09C465.426 131.7 466.316 132.5 468.096 132.5C468.435 132.536 468.778 132.489 469.095 132.364C469.412 132.238 469.694 132.038 469.916 131.78C470.278 131.292 470.468 130.697 470.456 130.09V126.45H472.456V129.56C472.464 130.278 472.4 130.995 472.266 131.7C472.155 132.316 471.89 132.894 471.496 133.38C471.055 133.9 470.482 134.29 469.836 134.51C468.92 134.808 467.959 134.944 466.996 134.91C466.116 134.983 465.23 134.871 464.397 134.579C463.563 134.288 462.799 133.825 462.156 133.22C461.032 131.91 460.465 130.212 460.576 128.49V109.82H455.836V107.95C456.768 107.892 457.691 107.748 458.596 107.52C459.391 107.333 460.122 106.939 460.716 106.38C461.332 105.75 461.788 104.982 462.046 104.14C462.403 102.94 462.565 101.691 462.526 100.44V99.2899L465.426 98.9199V107.29Z" fill="black"/>
<path d="M486.246 130.289C486.223 130.679 486.325 131.066 486.537 131.393C486.75 131.721 487.061 131.972 487.426 132.109C488.568 132.556 489.792 132.753 491.016 132.689V134.569H476.716V132.689C479.856 132.689 481.426 131.889 481.426 130.289V111.529C481.426 109.889 479.856 109.069 476.716 109.069V107.359H486.246V130.289ZM487.106 97.9495C487.111 98.4455 487.016 98.9375 486.827 99.3962C486.638 99.8549 486.359 100.271 486.006 100.619C485.667 100.981 485.256 101.268 484.8 101.463C484.344 101.657 483.852 101.755 483.356 101.749C482.351 101.739 481.391 101.335 480.681 100.625C479.97 99.9146 479.566 98.9541 479.556 97.9495C479.547 97.4541 479.643 96.9623 479.836 96.5059C480.028 96.0495 480.315 95.6386 480.676 95.2995C481.026 94.9457 481.444 94.666 481.904 94.4771C482.365 94.2881 482.858 94.1937 483.356 94.1995C484.35 94.2021 485.302 94.598 486.005 95.3007C486.707 96.0034 487.103 96.9557 487.106 97.9495V97.9495Z" fill="black"/>
<path d="M509.906 106.289C511.746 106.277 513.578 106.529 515.346 107.039C517.063 107.523 518.639 108.41 519.943 109.628C521.246 110.846 522.238 112.359 522.836 114.039C523.624 116.238 523.997 118.564 523.936 120.899C523.953 122.942 523.614 124.972 522.936 126.899C522.345 128.628 521.387 130.207 520.126 131.529C518.85 132.863 517.287 133.889 515.556 134.529C513.548 135.262 511.423 135.618 509.286 135.579C507.478 135.587 505.677 135.341 503.936 134.849C502.25 134.39 500.693 133.543 499.391 132.376C498.09 131.21 497.078 129.755 496.436 128.129C495.636 126.03 495.255 123.795 495.316 121.549C495.29 119.434 495.597 117.329 496.226 115.309C496.782 113.533 497.702 111.891 498.926 110.489C500.174 109.124 501.726 108.072 503.456 107.419C505.515 106.638 507.704 106.255 509.906 106.289V106.289ZM509.906 108.529C508.411 108.493 506.926 108.787 505.556 109.389C504.387 109.933 503.36 110.741 502.556 111.749C501.719 112.8 501.106 114.012 500.756 115.309C500.353 116.765 500.154 118.269 500.166 119.779C500.119 121.992 500.344 124.202 500.836 126.359C501.166 127.859 501.807 129.272 502.716 130.509C503.452 131.479 504.447 132.221 505.586 132.649C506.776 133.074 508.033 133.284 509.296 133.269C510.856 133.314 512.405 133.003 513.826 132.359C515.026 131.777 516.058 130.9 516.826 129.809C517.628 128.648 518.193 127.34 518.486 125.959C518.836 124.387 519.007 122.78 518.996 121.169C519.048 119.087 518.812 117.007 518.296 114.989C517.939 113.575 517.292 112.251 516.396 111.099C515.646 110.177 514.651 109.484 513.526 109.099C512.372 108.694 511.159 108.485 509.936 108.479L509.906 108.529Z" fill="black"/>
<path d="M558.256 130.289C558.256 131.889 559.836 132.689 563.016 132.689V134.569H549.256V132.689C552.043 132.689 553.436 131.889 553.436 130.289V115.059C553.436 112.846 553.026 111.286 552.206 110.379C551.801 109.932 551.303 109.579 550.746 109.344C550.19 109.109 549.59 108.998 548.986 109.019C547.87 109.034 546.765 109.251 545.726 109.659C544.571 110.096 543.468 110.66 542.436 111.339C541.384 112.034 540.412 112.842 539.536 113.749C538.707 114.6 537.997 115.558 537.426 116.599V130.289C537.426 131.889 538.82 132.689 541.606 132.689V134.569H527.896V132.689C531.036 132.689 532.606 131.889 532.606 130.289V111.529C532.606 109.889 531.036 109.069 527.896 109.069V107.289H537.426V112.749C538.998 111.084 540.811 109.664 542.806 108.539C544.943 107.341 547.356 106.723 549.806 106.749C551.998 106.635 554.162 107.277 555.936 108.569C557.456 109.776 558.216 111.823 558.216 114.709L558.256 130.289Z" fill="black"/>
<path d="M572.166 120.05C572.166 124.123 572.933 127.333 574.466 129.68C575.185 130.819 576.193 131.747 577.388 132.369C578.583 132.991 579.921 133.285 581.266 133.22C583.442 133.256 585.584 132.689 587.456 131.58C588.424 130.934 589.256 130.103 589.902 129.135C590.549 128.167 590.999 127.082 591.226 125.94L593.366 126.74C593.007 127.891 592.514 128.995 591.896 130.03C591.266 131.088 590.462 132.031 589.516 132.82C588.477 133.658 587.299 134.308 586.036 134.74C584.499 135.251 582.886 135.498 581.266 135.47C579.595 135.464 577.932 135.246 576.316 134.82C574.675 134.408 573.147 133.632 571.846 132.55C570.434 131.332 569.324 129.802 568.606 128.08C567.695 125.799 567.266 123.355 567.346 120.9C567.338 118.887 567.676 116.888 568.346 114.99C568.943 113.262 569.889 111.676 571.126 110.33C572.379 109.015 573.905 107.991 575.596 107.33C577.508 106.589 579.546 106.226 581.596 106.26C585.816 106.26 589.013 107.463 591.186 109.87C593.36 112.277 594.446 115.677 594.446 120.07L572.166 120.05ZM589.406 118.05C589.535 115.564 588.789 113.112 587.296 111.12C586.569 110.248 585.647 109.559 584.605 109.107C583.563 108.656 582.43 108.455 581.296 108.52C580.184 108.515 579.078 108.697 578.026 109.06C576.996 109.418 576.05 109.983 575.246 110.72C574.385 111.553 573.705 112.553 573.246 113.66C572.676 115.059 572.338 116.542 572.246 118.05H589.406Z" fill="black"/>
<path d="M608.146 130.289C608.146 131.889 609.733 132.689 612.906 132.689V134.569H598.616V132.689C601.756 132.689 603.326 131.889 603.326 130.289V97.5087C603.326 95.902 601.756 95.0987 598.616 95.0987V93.3887H608.146V130.289Z" fill="black"/>
<path d="M626.556 130.289C626.556 131.889 628.146 132.689 631.326 132.689V134.569H617.036V132.689C620.176 132.689 621.746 131.889 621.746 130.289V97.5087C621.746 95.902 620.176 95.0987 617.036 95.0987V93.3887H626.556V130.289Z" fill="black"/>
<path d="M661.196 130.058C661.196 131.668 661.736 132.468 662.806 132.468C663.05 132.469 663.289 132.399 663.493 132.265C663.698 132.132 663.859 131.942 663.956 131.718C664.228 131.208 664.365 130.637 664.356 130.058V126.418H666.336V129.518C666.434 130.938 666.107 132.355 665.396 133.588C664.776 134.478 663.606 134.928 661.886 134.928C661.163 134.951 660.446 134.786 659.806 134.448C659.252 134.149 658.781 133.716 658.436 133.188C658.089 132.652 657.826 132.065 657.656 131.448C657.484 130.815 657.36 130.17 657.286 129.518C656.809 130.365 656.194 131.125 655.466 131.768C654.633 132.52 653.705 133.159 652.706 133.668C651.613 134.242 650.455 134.681 649.256 134.978C647.979 135.305 646.665 135.47 645.346 135.468C641.926 135.468 639.43 134.778 637.856 133.398C637.06 132.676 636.435 131.785 636.027 130.79C635.619 129.795 635.437 128.722 635.496 127.648C635.452 126.379 635.779 125.125 636.436 124.038C637.079 123.029 637.949 122.183 638.976 121.568C640.132 120.872 641.377 120.334 642.676 119.968C644.066 119.558 645.526 119.198 647.056 118.898C648.586 118.598 650.156 118.318 651.746 118.068C653.336 117.818 654.856 117.508 656.326 117.158V115.498C656.386 113.695 655.817 111.928 654.716 110.498C654.091 109.805 653.316 109.263 652.449 108.917C651.582 108.57 650.647 108.427 649.716 108.498C647.878 108.456 646.044 108.692 644.276 109.198C643.086 109.528 641.98 110.111 641.036 110.908C641.735 110.977 642.394 111.268 642.916 111.738C643.176 111.97 643.383 112.255 643.521 112.575C643.659 112.894 643.726 113.24 643.716 113.588C643.73 113.996 643.662 114.403 643.516 114.784C643.37 115.166 643.149 115.514 642.866 115.808C642.546 116.112 642.167 116.347 641.753 116.499C641.338 116.65 640.897 116.715 640.456 116.688C640.016 116.717 639.574 116.651 639.162 116.494C638.75 116.337 638.376 116.093 638.066 115.778C637.492 115.115 637.195 114.255 637.236 113.378C637.266 112.495 637.547 111.638 638.046 110.908C638.661 109.977 639.474 109.191 640.426 108.608C641.623 107.866 642.92 107.297 644.276 106.918C645.997 106.452 647.774 106.23 649.556 106.258C651.101 106.249 652.643 106.4 654.156 106.708C655.488 106.969 656.753 107.496 657.876 108.258C658.954 109.024 659.812 110.058 660.366 111.258C661.023 112.764 661.334 114.397 661.276 116.038L661.196 130.058ZM656.326 119.058C653.506 119.628 651.076 120.178 649.046 120.688C647.333 121.102 645.659 121.667 644.046 122.378C642.92 122.841 641.919 123.564 641.126 124.488C640.488 125.325 640.156 126.356 640.186 127.408C640.138 128.118 640.273 128.828 640.578 129.47C640.883 130.113 641.347 130.666 641.926 131.078C643.436 131.968 645.177 132.386 646.926 132.278C647.983 132.286 649.036 132.152 650.056 131.878C650.989 131.642 651.894 131.307 652.756 130.878C653.53 130.483 654.249 129.988 654.896 129.408C655.443 128.921 655.93 128.371 656.346 127.768L656.326 119.058Z" fill="black"/>
<path d="M269.786 182.559L265.036 182.869C264.23 175.149 261.013 171.289 255.386 171.289H237.706V191.589H247.046C250.153 191.589 251.94 188.322 252.406 181.789H257.076L255.926 207.209H251.406C250.846 200.542 249.213 197.209 246.506 197.209H237.706V214.289C237.706 216.649 240.706 217.826 246.706 217.819V222.189H219.166V217.819C223.72 217.819 225.993 216.646 225.986 214.299V173.299C225.986 170.952 223.713 169.776 219.166 169.769V165.289H269.786V182.559Z" fill="black"/>
<path d="M313.976 202.589C313.976 209.256 312.136 214.416 308.456 218.069C304.776 221.723 299.443 223.543 292.456 223.529C289.797 223.54 287.147 223.221 284.566 222.579C282.108 221.996 279.825 220.83 277.911 219.18C275.997 217.53 274.507 215.445 273.566 213.099C272.358 210.047 271.786 206.781 271.886 203.499C271.886 196.519 273.646 191.156 277.166 187.409C280.686 183.663 286.076 181.793 293.336 181.799C296.036 181.774 298.726 182.11 301.336 182.799C303.825 183.429 306.125 184.651 308.04 186.361C309.955 188.071 311.429 190.218 312.336 192.619C313.53 195.804 314.087 199.191 313.976 202.589V202.589ZM288.476 172.289C288.482 172.966 288.352 173.637 288.096 174.263C287.839 174.889 287.461 175.457 286.983 175.936C286.504 176.414 285.936 176.793 285.31 177.049C284.684 177.305 284.013 177.435 283.336 177.429C282.666 177.444 281.999 177.319 281.38 177.063C280.76 176.806 280.2 176.424 279.736 175.939C279.27 175.456 278.905 174.884 278.665 174.257C278.424 173.63 278.313 172.961 278.336 172.289C278.336 170.963 278.863 169.692 279.801 168.754C280.738 167.816 282.01 167.289 283.336 167.289C284.008 167.275 284.675 167.396 285.299 167.645C285.923 167.894 286.49 168.266 286.966 168.739C287.449 169.195 287.832 169.746 288.092 170.357C288.352 170.968 288.483 171.626 288.476 172.289V172.289ZM293.256 186.759C289.443 186.759 286.67 187.999 284.936 190.479C283.206 192.949 282.346 196.479 282.346 201.159C282.295 204.035 282.526 206.909 283.036 209.739C283.345 211.627 284.025 213.435 285.036 215.059C285.811 216.262 286.924 217.209 288.236 217.779C289.61 218.31 291.074 218.568 292.546 218.539C296.546 218.539 299.37 217.189 301.016 214.489C302.663 211.789 303.48 207.959 303.466 202.999C303.518 200.314 303.273 197.631 302.736 194.999C302.393 193.204 301.678 191.501 300.636 189.999C299.825 188.85 298.7 187.958 297.396 187.429C296.068 186.957 294.665 186.734 293.256 186.769V186.759ZM305.706 172.289C305.71 172.964 305.58 173.633 305.324 174.257C305.067 174.881 304.69 175.449 304.213 175.926C303.735 176.403 303.168 176.781 302.544 177.037C301.92 177.293 301.251 177.423 300.576 177.419C299.906 177.434 299.239 177.309 298.62 177.053C298 176.796 297.44 176.414 296.976 175.929C296.5 175.452 296.125 174.884 295.874 174.259C295.624 173.633 295.502 172.963 295.516 172.289C295.51 171.624 295.636 170.963 295.888 170.347C296.14 169.73 296.513 169.17 296.984 168.7C297.455 168.23 298.016 167.858 298.633 167.607C299.25 167.356 299.91 167.231 300.576 167.239C301.248 167.225 301.915 167.346 302.539 167.595C303.163 167.844 303.73 168.216 304.206 168.689C304.693 169.152 305.078 169.711 305.337 170.331C305.595 170.951 305.721 171.618 305.706 172.289V172.289Z" fill="black"/>
<path d="M336.716 190.53C337.904 187.958 339.771 185.759 342.116 184.17C344.16 182.859 346.538 182.165 348.966 182.17C350.15 182.178 351.326 182.36 352.456 182.71C353.639 183.07 354.743 183.654 355.706 184.43C356.706 185.248 357.517 186.271 358.086 187.43C358.722 188.755 359.034 190.211 358.996 191.68C359.069 193.414 358.511 195.115 357.426 196.47C356.91 197.089 356.258 197.581 355.521 197.907C354.784 198.233 353.982 198.385 353.176 198.35C352.44 198.404 351.7 198.306 351.004 198.061C350.307 197.817 349.668 197.432 349.126 196.93C348.679 196.484 348.326 195.951 348.089 195.366C347.852 194.78 347.735 194.152 347.746 193.52C347.732 192.928 347.835 192.339 348.052 191.788C348.268 191.236 348.593 190.734 349.006 190.31C350.063 189.356 351.454 188.86 352.876 188.93C352.43 188.132 351.724 187.511 350.876 187.17C349.961 186.759 348.969 186.548 347.966 186.55C346.946 186.572 345.941 186.807 345.016 187.24C343.887 187.753 342.852 188.452 341.956 189.31C340.846 190.367 339.878 191.563 339.076 192.87C338.085 194.494 337.289 196.229 336.706 198.04V214.43C336.712 215.009 336.899 215.571 337.242 216.038C337.585 216.505 338.065 216.852 338.616 217.03C340.406 217.674 342.306 217.96 344.206 217.87V222.24H319.636V217.87C324.026 217.87 326.226 216.73 326.226 214.43V191.06C326.226 188.76 324.026 187.62 319.636 187.62V183.29H336.716V190.53Z" fill="black"/>
<path d="M398.816 197.289L394.306 197.829C393.74 194.255 392.246 191.589 389.826 189.829C387.131 188.01 383.926 187.096 380.676 187.219C378.854 187.135 377.046 187.575 375.466 188.489C374.858 188.823 374.351 189.316 373.999 189.914C373.647 190.512 373.463 191.195 373.466 191.889C373.424 192.622 373.589 193.353 373.943 193.996C374.297 194.64 374.825 195.171 375.466 195.529C377.048 196.429 378.748 197.102 380.516 197.529C382.516 198.042 384.7 198.512 387.066 198.939C389.314 199.349 391.51 200.003 393.616 200.889C395.551 201.708 397.277 202.952 398.666 204.529C400.093 206.346 400.804 208.623 400.666 210.929C400.701 212.698 400.335 214.451 399.596 216.059C398.903 217.515 397.875 218.786 396.596 219.769C395.216 220.809 393.642 221.564 391.966 221.989C390.041 222.495 388.057 222.74 386.066 222.719C383.518 222.772 380.972 222.514 378.486 221.949C376.682 221.521 374.971 220.769 373.436 219.729L372.336 219.089C371.996 218.899 371.616 218.793 371.226 218.779C371.116 218.779 370.836 219.079 370.376 219.659C369.848 220.426 369.506 221.306 369.376 222.229H364.936V207.529L369.376 207.069C369.604 208.744 370.221 210.343 371.176 211.739C372.116 213.114 373.311 214.295 374.696 215.219C376.155 216.194 377.758 216.933 379.446 217.409C381.201 217.916 383.019 218.172 384.846 218.169C386.811 218.306 388.765 217.782 390.396 216.679C390.981 216.254 391.457 215.696 391.784 215.051C392.111 214.405 392.28 213.692 392.276 212.969C392.306 212.25 392.135 211.536 391.781 210.909C391.428 210.282 390.907 209.766 390.276 209.419C388.688 208.538 386.985 207.882 385.216 207.469C383.216 206.959 381.016 206.469 378.666 206.019C376.419 205.597 374.225 204.926 372.126 204.019C370.181 203.181 368.451 201.912 367.066 200.309C365.635 198.456 364.924 196.146 365.066 193.809C364.989 192.241 365.282 190.678 365.922 189.245C366.561 187.811 367.529 186.549 368.746 185.559C371.2 183.559 374.67 182.559 379.156 182.559C381.365 182.55 383.562 182.888 385.666 183.559C387.343 184.053 388.962 184.723 390.496 185.559C390.906 185.809 391.286 186.029 391.646 186.209C391.976 186.383 392.343 186.476 392.716 186.479C392.866 186.479 393.146 186.199 393.556 185.629C394.034 184.908 394.374 184.104 394.556 183.259H398.836L398.816 197.289Z" fill="black"/>
<path d="M458.096 187.619C456.23 187.758 454.381 188.076 452.576 188.569C450.927 189.018 449.372 189.76 447.986 190.759L439.786 196.759L453.416 215.289C454.016 216.144 454.84 216.819 455.796 217.239C457.07 217.731 458.432 217.952 459.796 217.889V222.259H435.196V217.889H439.786C441.066 217.889 441.706 217.489 441.706 216.669C441.641 216.16 441.429 215.68 441.096 215.289L431.596 202.289L423.866 207.649V214.389C423.866 216.689 426.026 217.829 430.366 217.829V222.199H406.786V217.829C411.176 217.829 413.366 216.689 413.366 214.389V171.079C413.366 168.779 411.173 167.629 406.786 167.629V163.289H423.866L423.816 202.659L440.096 190.939C440.398 190.754 440.649 190.496 440.823 190.188C440.998 189.88 441.092 189.533 441.096 189.179C441.096 188.979 441.055 188.781 440.976 188.597C440.897 188.413 440.781 188.247 440.636 188.109C440.203 187.76 439.65 187.594 439.096 187.649H435.426V183.289H458.096V187.619Z" fill="black"/>
<path d="M504.806 202.588C504.806 209.255 502.97 214.415 499.296 218.068C495.623 221.722 490.29 223.542 483.296 223.528C480.637 223.539 477.987 223.22 475.406 222.578C472.946 221.997 470.662 220.833 468.748 219.183C466.833 217.532 465.344 215.446 464.406 213.098C463.189 210.048 462.614 206.78 462.716 203.498C462.716 196.518 464.476 191.155 467.996 187.408C471.516 183.662 476.903 181.792 484.156 181.798C486.856 181.772 489.546 182.109 492.156 182.798C494.645 183.428 496.945 184.65 498.86 186.36C500.775 188.07 502.249 190.217 503.156 192.618C504.353 195.802 504.914 199.189 504.806 202.588ZM484.086 186.768C480.273 186.768 477.503 188.008 475.776 190.488C474.046 192.958 473.176 196.488 473.176 201.168C473.125 204.044 473.356 206.918 473.866 209.748C474.18 211.635 474.859 213.442 475.866 215.068C476.641 216.271 477.754 217.218 479.066 217.788C480.443 218.32 481.911 218.578 483.386 218.548C487.386 218.548 490.21 217.198 491.856 214.498C493.503 211.798 494.33 207.968 494.336 203.008C494.393 200.323 494.148 197.639 493.606 195.008C493.263 193.213 492.548 191.51 491.506 190.008C490.694 188.859 489.57 187.967 488.266 187.438C486.926 186.958 485.509 186.731 484.086 186.768V186.768Z" fill="black"/>
<path d="M527.546 214.419C527.546 216.719 529.766 217.859 534.206 217.859V222.229H510.466V217.859C514.856 217.859 517.056 216.719 517.056 214.419V171.079C517.056 168.779 514.859 167.629 510.466 167.629V163.289H527.546V214.419Z" fill="black"/>
<path d="M578.926 214.709C578.926 216.959 579.696 218.089 581.226 218.089C581.563 218.098 581.895 218.008 582.181 217.83C582.468 217.653 582.695 217.395 582.836 217.089C583.204 216.364 583.389 215.561 583.376 214.749V210.219H586.976V213.679C587.009 215.133 586.8 216.583 586.356 217.969C586.014 219.047 585.41 220.023 584.596 220.809C583.826 221.532 582.893 222.06 581.876 222.349C580.77 222.66 579.625 222.815 578.476 222.809C577.266 222.842 576.063 222.617 574.946 222.149C574.02 221.749 573.186 221.164 572.496 220.429C571.836 219.716 571.316 218.885 570.966 217.979C570.6 217.036 570.318 216.062 570.126 215.069C569.519 216.257 568.729 217.344 567.786 218.289C566.73 219.355 565.532 220.27 564.226 221.009C562.758 221.834 561.188 222.462 559.556 222.879C557.731 223.35 555.852 223.581 553.966 223.569C549.166 223.569 545.656 222.585 543.436 220.619C542.324 219.614 541.448 218.376 540.873 216.993C540.297 215.609 540.035 214.115 540.106 212.619C540.05 210.829 540.474 209.058 541.336 207.489C542.15 206.109 543.277 204.941 544.626 204.079C546.139 203.108 547.792 202.372 549.526 201.899C551.386 201.359 553.376 200.899 555.526 200.439C557.676 199.979 559.846 199.589 562.116 199.179C564.386 198.769 566.646 198.259 568.896 197.649V195.289C568.902 194.071 568.733 192.859 568.396 191.689C568.082 190.588 567.523 189.573 566.761 188.72C565.999 187.866 565.054 187.195 563.996 186.759C562.727 186.244 561.365 185.995 559.996 186.029C557.792 185.979 555.591 186.234 553.456 186.789C551.916 187.19 550.472 187.894 549.206 188.859C550.301 188.924 551.348 189.326 552.206 190.009C552.618 190.351 552.944 190.786 553.157 191.277C553.371 191.769 553.466 192.304 553.436 192.839C553.461 193.484 553.351 194.128 553.113 194.729C552.875 195.329 552.516 195.874 552.056 196.329C550.933 197.294 549.473 197.775 547.996 197.669C547.267 197.723 546.535 197.625 545.846 197.381C545.157 197.136 544.527 196.751 543.996 196.249C543.053 195.16 542.572 193.746 542.656 192.309C542.683 190.939 543.11 189.607 543.886 188.479C544.803 187.098 546.003 185.929 547.406 185.049C549.165 183.937 551.089 183.11 553.106 182.599C555.646 181.942 558.263 181.626 560.886 181.659C563.172 181.655 565.453 181.872 567.696 182.309C569.755 182.693 571.728 183.448 573.516 184.539C575.204 185.595 576.584 187.079 577.516 188.839C578.584 190.963 579.097 193.323 579.006 195.699L578.926 214.709ZM568.926 200.709C565.66 201.529 562.826 202.282 560.426 202.969C558.363 203.526 556.355 204.269 554.426 205.189C553.058 205.811 551.853 206.742 550.906 207.909C550.109 209.022 549.704 210.37 549.756 211.739C549.716 212.553 549.868 213.366 550.199 214.111C550.531 214.857 551.034 215.513 551.666 216.029C552.946 217.049 554.886 217.559 557.486 217.559C559.928 217.603 562.332 216.951 564.416 215.679C566.237 214.623 567.775 213.14 568.896 211.359L568.926 200.709Z" fill="black"/>
<path d="M69.4488 153.765C69.0527 154.161 68.2607 154.161 67.8647 154.161C67.0726 153.765 66.2806 152.973 66.6766 151.785C70.2408 141.093 74.201 129.212 82.9134 113.371C83.3094 112.579 84.4975 112.183 85.2895 112.579C86.0816 112.975 86.4776 114.163 86.0816 114.955C77.3691 130.796 73.409 142.281 69.8448 152.973C69.8448 153.369 69.8448 153.369 69.4488 153.765Z" fill="black"/>
<path d="M43.7074 70.6037C43.3114 70.6037 43.3114 70.9997 42.9154 70.9997C42.1233 70.9997 40.9353 70.6037 40.9353 69.4156C40.5393 67.0395 40.9353 62.6833 41.7273 57.139C43.3114 46.4465 45.2915 30.6057 39.3512 25.0615C38.5592 24.2694 38.5592 23.0814 38.9552 22.2893C39.7472 21.4973 40.9353 21.4973 41.3313 22.2893C48.8557 29.0217 46.4796 45.6545 44.8955 57.5351C44.1034 62.2873 43.7074 66.6435 44.1034 68.6236C44.4995 69.4156 44.1034 70.2077 43.7074 70.6037Z" fill="black"/>
<path d="M100.734 66.247C100.338 66.247 100.338 66.643 99.9422 66.643C94.7939 67.435 72.6168 64.2669 66.6765 53.9704C66.2805 53.1783 66.2805 51.9903 67.4686 51.5943C68.2606 51.1983 69.4487 51.1983 69.8447 52.3863C74.5969 60.7027 94.3979 63.8709 99.5461 63.0788C100.338 63.0788 101.526 63.4748 101.526 64.6629C101.13 65.4549 101.13 65.851 100.734 66.247Z" fill="black"/>
<path d="M76.1813 33.7756C75.7852 34.1716 75.3892 34.1716 74.5972 33.7756C72.2211 32.9835 69.4489 32.9835 66.6768 32.9835C60.3405 32.9835 52.8161 32.5875 42.9156 26.6472C42.1236 26.2512 41.7276 25.0631 42.5196 24.2711C42.9156 23.4791 44.1037 23.083 44.8957 23.8751C53.6082 29.4194 60.7365 29.4194 66.6768 29.8154C69.8449 29.8154 73.0131 29.8154 75.7852 31.0034C76.5773 31.3995 77.3693 32.1915 76.9733 33.3795C76.9733 32.9835 76.5773 33.3795 76.1813 33.7756Z" fill="black"/>
<path d="M39.3511 69.0193C23.9063 69.8114 9.64964 88.0283 10.4417 109.413C11.6297 131.194 24.6984 147.827 42.9153 147.035C61.5282 146.243 72.6167 128.026 71.8247 106.245C71.0326 84.8601 54.3998 68.2273 39.3511 69.0193ZM54.7958 95.5526C53.6078 97.1367 50.8356 97.1367 48.8555 95.5526C46.8754 93.9686 46.4794 91.1964 48.0635 89.6123C49.6476 88.0283 52.0237 88.0283 54.0038 89.6123C55.5879 91.1964 55.9839 93.9686 54.7958 95.5526ZM48.0635 82.088C47.6675 86.0482 42.9153 88.4243 37.767 87.6322C32.6188 86.8402 29.0546 83.276 29.4506 79.3158C29.8466 75.3556 34.5989 72.9795 39.7471 73.7716C44.8954 74.5636 48.8555 78.5238 48.0635 82.088Z" fill="black"/>
<path d="M104.694 164.855C96.7737 152.974 95.1897 137.925 98.7538 126.045C92.4175 107.828 86.4772 94.3633 86.4772 94.3633C79.7449 106.244 69.4484 159.706 113.803 198.516C114.199 191.388 113.407 183.072 111.822 173.963C109.446 171.191 107.07 168.419 104.694 164.855Z" fill="black"/>
<path d="M112.219 113.368C99.5467 121.684 95.9825 144.653 107.863 162.87C119.744 181.087 139.545 189.008 154.989 179.107C170.434 169.207 171.226 147.822 159.346 129.605C147.465 111.388 124.892 105.051 112.219 113.368ZM124.496 127.229C119.348 127.625 114.991 124.852 114.595 121.288C114.199 117.328 118.16 113.764 123.308 113.368C128.456 112.972 132.812 115.744 133.208 119.308C133.208 123.268 129.644 126.833 124.496 127.229ZM143.901 131.189C142.317 132.773 139.941 132.773 137.961 131.189C135.98 129.605 135.584 126.833 137.168 125.248C138.753 123.664 141.129 123.664 143.109 125.248C144.693 126.833 145.089 129.605 143.901 131.189Z" fill="black"/>
<path d="M64.3 30.9999C82.5169 23.0795 145.088 24.6636 165.285 38.9203C147.464 48.0287 84.101 48.4247 64.3 30.9999Z" fill="black"/>
<path d="M73.8046 134.762C59.548 149.414 54.3997 183.076 53.6077 192.185C67.0723 183.472 79.7449 150.602 73.8046 134.762Z" fill="black"/>
<path d="M145.88 55.5568C128.851 45.6564 107.466 50.4086 99.942 63.0812C92.4176 75.7538 98.7539 96.7428 115.783 107.039C116.179 107.039 116.575 107.435 116.971 107.435C122.911 105.851 130.039 105.851 137.168 108.227C139.94 109.019 142.712 110.604 145.484 111.792C152.217 109.811 158.157 105.851 162.117 99.119C171.225 83.6742 163.305 65.4573 145.88 55.5568ZM128.851 62.6852C129.247 66.6454 125.287 70.2096 120.139 70.6056C114.991 71.0016 110.635 68.2295 110.238 64.6653C109.842 60.7051 113.803 57.1409 118.951 56.7449C124.099 55.9529 128.455 58.725 128.851 62.6852ZM141.128 67.0414C139.94 68.6255 137.168 68.6255 135.188 67.0414C133.208 65.4573 132.812 62.6852 134.396 61.1011C135.98 59.517 138.356 59.517 140.336 61.1011C142.316 63.0812 142.712 65.4573 141.128 67.0414Z" fill="black"/>
<path d="M5.29347 11.9916C6.48152 12.3876 8.46162 13.1797 10.8377 13.9717C13.2139 14.3677 15.986 15.5558 19.1541 17.1399C22.3223 18.3279 25.8865 19.912 29.4506 22.2881C36.975 26.2483 44.8954 32.1886 52.0237 40.109C59.1521 48.0294 65.8844 57.1378 71.4287 67.4343C74.2008 72.5826 76.5769 77.7308 79.3491 83.2751C80.5371 86.0472 82.1212 88.4233 83.7053 91.1955C84.4973 92.3835 85.2894 93.5716 86.0814 94.7596C86.8734 95.9477 88.0615 97.1358 88.8535 98.3238C95.1898 105.848 101.922 111.392 108.258 116.145C109.447 114.957 110.239 114.165 111.427 113.373C109.051 110.996 106.278 108.62 103.902 106.244C100.338 102.68 96.7739 98.7198 93.6058 94.7596C92.8137 93.5716 92.0217 92.7795 91.2296 91.5915C90.4376 90.4034 89.6456 89.2154 88.8535 88.0273C87.6655 86.0472 86.4774 83.2751 85.2893 80.5029C82.9132 75.3547 80.5371 69.8104 77.765 64.2662C74.9929 58.7219 72.2207 53.5736 69.0526 48.4254C65.8844 43.2771 62.3202 38.5249 58.36 34.1687C50.4397 25.4563 41.7272 18.7239 33.8069 14.3677C29.8467 11.9916 25.8865 10.4075 22.3223 8.82346C19.5502 7.23939 16.382 6.05133 14.0059 4.86327C11.2338 4.07123 9.25366 3.67521 8.0656 3.27919C6.48152 2.88317 5.68949 2.48716 5.68949 2.48716C3.70939 2.09114 0.937256 3.27919 0.541237 5.65531C-0.250802 8.03142 0.937256 10.4075 3.31337 11.1996C3.31337 11.1996 4.10541 11.5956 5.29347 11.9916Z" fill="black"/>
</svg>
